<svg width="24" height="24" viewBox="0 0 24 24" fill="none" xmlns="http://www.w3.org/2000/svg">
<path fill-rule="evenodd" clip-rule="evenodd" d="M15.4381 12.498C15.4381 10.7612 14.0297 9.35278 12.2928 9.35278C10.556 9.35278 9.14758 10.7612 9.14758 12.498C9.14758 14.2349 10.556 15.6433 12.2928 15.6433C14.0297 15.6433 15.4381 14.2349 15.4381 12.498Z" stroke="#112950" stroke-width="1.5" stroke-linecap="round" stroke-linejoin="round"/>
<path fill-rule="evenodd" clip-rule="evenodd" d="M12.2926 20.2001C20.3378 20.2001 21.2957 17.7895 21.2957 12.5664C21.2957 8.90533 20.8115 6.94639 17.7621 6.10428C17.4821 6.01586 17.1715 5.84744 16.92 5.5706C16.5136 5.12533 16.2168 3.75796 15.2357 3.34428C14.2547 2.93165 10.3147 2.9506 9.34943 3.34428C8.38522 3.73902 8.07153 5.12533 7.66522 5.5706C7.41364 5.84744 7.10417 6.01586 6.82311 6.10428C3.77364 6.94639 3.28943 8.90533 3.28943 12.5664C3.28943 17.7895 4.24732 20.2001 12.2926 20.2001Z" stroke="#112950" stroke-width="1.5" stroke-linecap="round" stroke-linejoin="round"/>
<path d="M17.2046 9H17.2136" stroke="#112950" stroke-width="1.5" stroke-linecap="round" stroke-linejoin="round"/>
</svg>
