<svg width="24" height="24" viewBox="0 0 24 24" fill="none" xmlns="http://www.w3.org/2000/svg">
<path d="M20.4532 10.3555H13.0118C12.6837 10.3555 12.418 10.6211 12.418 10.9492V13.3281C12.418 13.6562 12.6837 13.9219 13.0118 13.9219H17.2032C16.7462 15.1133 15.8868 16.1094 14.7969 16.7422L16.5821 19.8359C19.4454 18.1797 21.1407 15.2695 21.1407 12.0156C21.1407 11.5508 21.1055 11.2188 21.0391 10.8477C20.9844 10.5625 20.7383 10.3555 20.4532 10.3555Z" fill="#167EE6"/>
<path d="M12.0196 17.4922C9.96881 17.4922 8.17975 16.3711 7.21881 14.7148L4.12506 16.4961C5.69928 19.2266 8.6485 21.0625 12.0196 21.0625C13.6758 21.0625 15.2344 20.6172 16.5821 19.8398V19.8359L14.7969 16.7422C13.9766 17.2187 13.0313 17.4922 12.0196 17.4922Z" fill="#12B347"/>
<path d="M16.5781 19.8398V19.8359L14.793 16.7422C13.9766 17.2148 13.0313 17.4922 12.0195 17.4922V21.0625C13.6758 21.0625 15.2344 20.6172 16.5781 19.8398Z" fill="#0F993E"/>
<path d="M6.46875 11.9414C6.46875 10.9297 6.74609 9.98437 7.21875 9.16797L4.125 7.38672C3.34375 8.72656 2.89844 10.2812 2.89844 11.9414C2.89844 13.6016 3.34375 15.1562 4.125 16.4961L7.21875 14.7148C6.74219 13.8984 6.46875 12.9531 6.46875 11.9414Z" fill="#FFD500"/>
<path d="M12.0196 6.39062C13.3555 6.39062 14.586 6.86719 15.543 7.65625C15.7813 7.85156 16.1251 7.83594 16.3399 7.62109L18.0235 5.9375C18.2696 5.69141 18.2501 5.28906 17.9883 5.0625C16.3829 3.66406 14.293 2.82031 12.0196 2.82031C8.6485 2.82031 5.69928 4.65625 4.12506 7.38672L7.21881 9.16797C8.17975 7.51172 9.96881 6.39062 12.0196 6.39062Z" fill="#FF4B26"/>
<path d="M15.543 7.65625C15.7812 7.85156 16.125 7.83594 16.3398 7.62109L18.0234 5.9375C18.2695 5.69141 18.25 5.28906 17.9883 5.0625C16.3828 3.66406 14.293 2.82031 12.0195 2.82031V6.39063C13.3555 6.39063 14.5859 6.86328 15.543 7.65625Z" fill="#D93F21"/>
</svg>
